<?xml version="1.0" encoding="utf-8"?>
<!-- Generator: Adobe Illustrator 24.2.3, SVG Export Plug-In . SVG Version: 6.00 Build 0)  -->
<svg version="1.1" id="Layer_1" xmlns="http://www.w3.org/2000/svg" xmlns:xlink="http://www.w3.org/1999/xlink" x="0px" y="0px"
	 viewBox="0 0 1080 1080" style="enable-background:new 0 0 1080 1080;" xml:space="preserve">
<style type="text/css">
	.st0{fill:#848BB4;}
	.st1{fill:#FEFEFE;}
</style>
<g>
	<path class="st0" d="M509,28.12c20.66,0,41.33,0,61.99,0c0.5,1.24,1.62,0.89,2.55,0.98c9.94,0.96,19.91,1.69,29.82,2.88
		c57.9,6.95,113.03,23.43,164.99,49.8c103.51,52.54,181.58,130.76,232.37,235.19c50.74,104.3,63.84,213.91,40.48,327.38
		c-21.61,105.01-72.14,194.5-150.2,267.91c-86.18,81.05-188.59,126.86-306.51,137.85c-4.5,0.42-9.21-0.31-13.51,1.76
		c-21,0-42,0-62.99,0c-0.64-1.46-1.97-0.89-3.04-1c-9.44-0.96-18.9-1.72-28.32-2.86c-57.9-6.97-113.04-23.43-164.99-49.8
		C208.13,945.68,130.07,867.46,79.27,763.03c-50.74-104.3-63.84-213.91-40.49-327.39c21.65-105.2,72.31-194.8,150.56-268.26
		c86.12-80.85,188.41-126.54,306.15-137.5C499.99,29.47,504.7,30.2,509,28.12z M775.68,634.98c9,0,18,0.03,27-0.01
		c33.2-0.14,60.89-13.21,83.39-36.98c25.98-27.45,36.24-60.86,33.65-98.13c-2.07-29.79-16.68-51.07-45.39-61.51
		c-10.55-3.84-21.54-6.16-32.73-6.24c-40.66-0.28-81.32-0.11-121.98-0.38c-4.48-0.03-5.83,1.51-6.62,5.54
		c-11.07,56.66-22.26,113.29-33.45,169.93c-6.13,31.01-12.35,62-18.4,93.02c-0.34,1.76-2.73,4.91,2.31,4.98
		c18.81,0.26,37.62,0.75,56.43,1.33c3.26,0.1,4.6-0.76,5.19-4.16c3.58-20.65,7.55-41.24,11.09-61.91c0.77-4.51,2.48-5.79,7.04-5.61
		C754.01,635.26,764.85,634.98,775.68,634.98z M306.48,634.98c9.33,0,18.66-0.08,27.99,0.02c10.26,0.11,20.24-1.54,30-4.53
		c53.52-16.4,89.69-67.94,85.85-128.87c-1.63-25.82-11.95-46.53-35.69-58.94c-13.36-6.99-27.86-10.37-42.78-10.52
		c-41.15-0.42-82.3-0.21-123.44-0.34c-2.87-0.01-3.94,0.84-4.51,3.78c-12.2,62.18-24.54,124.33-36.85,186.49
		c-5.17,26.11-10.33,52.21-15.52,78.32c-0.49,2.45-1.71,4.75,2.74,4.81c18.81,0.26,37.61,0.76,56.41,1.31
		c3.04,0.09,4.21-0.78,4.77-3.95c3.72-21.13,7.79-42.2,11.5-63.33c0.58-3.32,1.7-4.38,5.05-4.32
		C283.49,635.1,294.99,634.98,306.48,634.98z M617.88,637.98c10.16,0,20.33-0.03,30.49,0.02c2.33,0.01,4.16-0.08,4.66-3.09
		c3.59-21.82,7.33-43.61,10.96-65.42c4.12-24.72,7.98-49.49,12.35-74.17c3.88-21.94-6.09-40.37-25.14-50.16
		c-14.49-7.44-30.2-10.08-46.36-10.28c-9.66-0.12-19.33-0.02-28.99-0.02c-8.5,0-16.99,0.02-25.49-0.02
		c-1.74-0.01-3.69,0.53-3.07-2.76c4.04-21.38,7.59-42.86,12-64.16c1.07-5.16-0.58-4.96-4.3-4.93c-14.99,0.13-29.99,0.02-44.99,0.07
		c-4.48,0.01-9.88-1.25-13.16,0.8c-3.12,1.95-1.92,7.97-3.34,12.02c-0.16,0.46-0.27,0.94-0.36,1.42
		c-5.22,27.07-10.2,54.19-15.72,81.2c-7.2,35.2-13.84,70.51-21.11,105.7c-4.77,23.11-8.89,46.38-13.55,69.52
		c-0.78,3.88-0.01,4.19,3.2,4.11c16.44-0.41,32.89-0.59,49.33-1.13c8.92-0.29,9.17-0.49,11.17-9.99c5-23.77,9.76-47.59,14.6-71.39
		c4.65-22.91,9.32-45.81,13.84-68.74c0.39-1.96,1.12-2.46,2.87-2.43c18.79,0.35,37.62-0.95,56.36,0.74
		c9.15,0.83,13.04,4.45,13.86,10.26c0.67,4.71,0.56,9.72-0.22,14.42c-2.13,12.81-4.9,25.51-7.23,38.28
		c-2.36,12.95-5.06,25.84-7.31,38.79c-2.74,15.71-5.77,31.35-8.72,47.01c-0.64,3.39-0.09,4.4,3.38,4.35
		C597.89,637.88,607.88,637.98,617.88,637.98z"/>
	<path class="st1" d="M775.68,634.98c-10.83,0-21.67,0.28-32.49-0.13c-4.56-0.17-6.27,1.1-7.04,5.61
		c-3.53,20.66-7.5,41.25-11.09,61.91c-0.59,3.4-1.93,4.26-5.19,4.16c-18.81-0.57-37.62-1.07-56.43-1.33
		c-5.04-0.07-2.65-3.21-2.31-4.98c6.05-31.02,12.27-62.01,18.4-93.02c11.19-56.63,22.38-113.27,33.45-169.93
		c0.79-4.03,2.15-5.57,6.62-5.54c40.66,0.27,81.32,0.1,121.98,0.38c11.2,0.08,22.18,2.41,32.73,6.24
		c28.71,10.44,43.32,31.72,45.39,61.51c2.59,37.27-7.66,70.68-33.65,98.13c-22.5,23.77-50.19,36.84-83.39,36.98
		C793.68,635.01,784.68,634.98,775.68,634.98z M774.59,582.81c8.45,0.6,16.85,1.67,25.36,0.2c29.2-5.05,45.17-19.54,51.64-47.51
		c1.58-6.82,2.33-13.77,2.88-20.74c1-12.82-4.93-23.21-16.59-28.62c-4.86-2.26-9.98-3.69-15.33-4.19
		c-16.62-1.55-33.28-0.42-49.92-0.81c-2.62-0.06-3.32,1.12-3.72,3.48c-5.38,31.46-10.79,62.91-16.4,94.32
		c-0.57,3.19,0.44,3.87,3.1,3.87C761.95,582.81,768.27,582.81,774.59,582.81z"/>
	<path class="st1" d="M306.48,634.98c-11.5,0-22.99,0.12-34.49-0.07c-3.35-0.06-4.47,1.01-5.05,4.32
		c-3.71,21.13-7.78,42.2-11.5,63.33c-0.56,3.18-1.73,4.04-4.77,3.95c-18.8-0.55-37.6-1.05-56.41-1.31
		c-4.46-0.06-3.23-2.36-2.74-4.81c5.19-26.1,10.35-52.21,15.52-78.32c12.31-62.16,24.65-124.31,36.85-186.49
		c0.58-2.94,1.64-3.78,4.51-3.78c41.15,0.13,82.3-0.08,123.44,0.34c14.92,0.15,29.42,3.53,42.78,10.52
		c23.74,12.42,34.07,33.12,35.69,58.94c3.84,60.93-32.33,112.47-85.85,128.87c-9.76,2.99-19.74,4.64-30,4.53
		C325.14,634.9,315.81,634.98,306.48,634.98z M300.26,582.82c14.64,1.55,26.16,1.29,37.6-1.8c16.58-4.48,29.66-13.2,37.1-29.19
		c6.16-13.22,8.58-27.27,8.44-41.7c-0.09-10.14-5.33-17.63-14.04-22.66c-5.25-3.04-10.99-4.81-17-5.43
		c-16.94-1.72-33.94-0.48-50.91-0.9c-3.21-0.08-3.22,1.91-3.61,4.14c-5.37,31.12-10.71,62.24-16.31,93.31
		c-0.69,3.83,0.75,4.26,3.72,4.24C291.26,582.78,297.25,582.82,300.26,582.82z"/>
	<path class="st1" d="M617.88,637.98c-10,0-20-0.1-29.99,0.06c-3.48,0.05-4.02-0.96-3.38-4.35c2.95-15.66,5.99-31.31,8.72-47.01
		c2.26-12.95,4.95-25.85,7.31-38.79c2.33-12.78,5.1-25.47,7.23-38.28c0.78-4.7,0.89-9.71,0.22-14.42
		c-0.82-5.81-4.71-9.43-13.86-10.26c-18.75-1.69-37.58-0.39-56.36-0.74c-1.76-0.03-2.48,0.46-2.87,2.43
		c-4.52,22.93-9.19,45.83-13.84,68.74c-4.84,23.8-9.59,47.62-14.6,71.39c-2,9.49-2.25,9.69-11.17,9.99
		c-16.44,0.54-32.89,0.71-49.33,1.13c-3.21,0.08-3.98-0.23-3.2-4.11c4.67-23.14,8.78-46.42,13.55-69.52
		c7.27-35.19,13.91-70.5,21.11-105.7c5.52-27.01,10.5-54.13,15.72-81.2c0.09-0.48,0.2-0.96,0.36-1.42
		c1.42-4.05,0.22-10.08,3.34-12.02c3.28-2.05,8.68-0.78,13.16-0.8c15-0.05,29.99,0.06,44.99-0.07c3.72-0.03,5.37-0.23,4.3,4.93
		c-4.41,21.3-7.96,42.78-12,64.16c-0.62,3.3,1.32,2.76,3.07,2.76c8.5,0.04,16.99,0.02,25.49,0.02c9.66,0,19.33-0.1,28.99,0.02
		c16.15,0.2,31.87,2.84,46.36,10.28c19.06,9.78,29.03,28.22,25.14,50.16c-4.37,24.68-8.22,49.45-12.35,74.17
		c-3.64,21.81-7.37,43.6-10.96,65.42c-0.49,3.01-2.32,3.1-4.66,3.09C638.21,637.95,628.04,637.98,617.88,637.98z"/>
	<path class="st0" d="M774.59,582.81c-6.32,0-12.65,0-18.97,0c-2.66,0-3.67-0.68-3.1-3.87c5.61-31.41,11.02-62.86,16.4-94.32
		c0.4-2.36,1.09-3.54,3.72-3.48c16.64,0.39,33.3-0.74,49.92,0.81c5.35,0.5,10.47,1.93,15.33,4.19c11.65,5.41,17.59,15.8,16.59,28.62
		c-0.54,6.98-1.3,13.92-2.88,20.74c-6.47,27.97-22.44,42.46-51.64,47.51C791.44,584.48,783.04,583.41,774.59,582.81z"/>
	<path class="st0" d="M300.26,582.82c-3.01,0-9-0.04-14.99,0.02c-2.97,0.03-4.41-0.41-3.72-4.24c5.6-31.07,10.94-62.2,16.31-93.31
		c0.38-2.23,0.4-4.22,3.61-4.14c16.97,0.42,33.97-0.82,50.91,0.9c6.01,0.61,11.74,2.39,17,5.43c8.71,5.03,13.94,12.51,14.04,22.66
		c0.13,14.44-2.29,28.48-8.44,41.7c-7.44,15.99-20.52,24.7-37.1,29.19C326.42,584.11,314.9,584.37,300.26,582.82z"/>
</g>
</svg>
