<?xml version="1.0" standalone="no"?>
<!DOCTYPE svg PUBLIC "-//W3C//DTD SVG 20010904//EN"
 "http://www.w3.org/TR/2001/REC-SVG-20010904/DTD/svg10.dtd">
<svg version="1.0" xmlns="http://www.w3.org/2000/svg"
 width="534.000000pt" height="534.000000pt" viewBox="0 0 534.000000 534.000000"
 preserveAspectRatio="xMidYMid meet">
<metadata>
Created by potrace 1.14, written by Peter Selinger 2001-2017
</metadata>
<g transform="translate(0.000000,534.000000) scale(0.100000,-0.100000)"
fill="#000000" stroke="none">
<path d="M3245 5321 c-18 -11 -199 -249 -450 -591 -603 -823 -1297 -1770
-1429 -1950 -324 -440 -326 -442 -326 -476 0 -18 5 -45 12 -59 25 -55 16 -54
697 -62 347 -3 631 -8 631 -10 0 -15 -50 -191 -240 -838 -252 -856 -350 -1202
-350 -1230 0 -41 40 -91 79 -100 67 -14 83 3 330 341 127 176 282 387 344 471
62 84 136 186 166 227 30 41 58 73 62 71 4 -3 6 1 5 8 -2 19 335 477 347 470
6 -3 7 -1 3 5 -3 6 21 48 54 94 33 46 79 109 101 141 23 33 45 55 51 51 6 -4
8 -3 4 4 -5 9 174 266 354 507 21 28 45 62 55 77 9 15 22 25 28 21 5 -3 7 -2
4 4 -9 14 22 55 35 47 7 -4 8 -2 4 4 -4 7 -2 17 4 24 6 7 29 38 51 68 22 30
45 54 51 52 5 -1 7 2 4 7 -6 9 24 55 160 250 56 81 59 118 10 167 l-34 34
-504 2 c-276 2 -558 3 -626 3 -83 0 -122 4 -122 11 0 6 15 63 34 125 68 228
247 847 371 1279 25 85 76 263 115 394 38 132 70 254 70 271 0 37 -22 70 -60
90 -38 20 -59 19 -95 -4z m-131 -697 c-91 -313 -232 -796 -313 -1074 l-148
-505 -41 -3 c-23 -2 -42 0 -42 4 0 4 15 59 34 123 82 275 142 481 186 636 16
55 33 116 39 135 18 57 117 398 161 550 93 324 163 539 186 570 14 19 42 58
62 87 20 28 38 50 40 48 2 -1 -72 -259 -164 -571z m896 -1589 c0 -5 -163 -231
-382 -530 -48 -66 -118 -163 -156 -215 -38 -52 -206 -284 -374 -515 -167 -231
-407 -562 -533 -735 -125 -173 -251 -346 -280 -385 -28 -38 -123 -169 -210
-290 -87 -121 -161 -224 -165 -228 -4 -5 5 35 21 89 16 54 36 105 43 113 8 9
73 99 145 201 72 102 134 190 139 195 4 6 38 53 76 105 37 52 76 106 86 120
29 38 87 118 175 240 44 61 114 157 155 213 42 56 91 125 110 152 18 28 37 52
40 55 3 3 22 28 40 55 19 28 49 70 68 95 57 76 126 171 195 268 27 37 94 130
150 207 56 77 111 153 122 168 11 15 32 42 47 60 15 18 28 36 28 40 0 4 8 17
18 28 11 10 25 31 32 45 12 22 12 27 0 35 -12 8 -10 9 6 4 23 -6 50 17 39 35
-3 5 0 10 7 10 7 0 34 31 60 68 25 37 54 76 62 87 46 58 146 199 146 206 0 5
20 9 45 9 25 0 45 -2 45 -5z m-828 -117 c-7 -7 -12 -8 -12 -2 0 6 3 14 7 17 3
4 9 5 12 2 2 -3 -1 -11 -7 -17z m114 -46 c-4 -3 -14 2 -24 12 -16 18 -16 18 6
6 13 -6 21 -14 18 -18z m-154 -27 c-2 -14 -6 -25 -8 -25 -2 0 -4 11 -4 25 0
14 4 25 9 25 4 0 6 -11 3 -25z m187 -25 c0 -9 -4 -8 -9 5 -5 11 -9 27 -9 35 0
9 4 8 9 -5 5 -11 9 -27 9 -35z m41 6 c0 -26 -6 -18 -14 19 -5 22 -4 26 4 15 5
-8 10 -24 10 -34z m-210 -20 c0 -3 -4 -8 -10 -11 -5 -3 -10 -1 -10 4 0 6 5 11
10 11 6 0 10 -2 10 -4z m160 -16 c0 -5 -5 -10 -11 -10 -5 0 -7 5 -4 10 3 6 8
10 11 10 2 0 4 -4 4 -10z m-134 -31 c19 -22 19 -22 -3 -10 -13 6 -23 16 -23
21 0 15 5 12 26 -11z m104 -3 c0 -2 -7 -7 -16 -10 -8 -3 -12 -2 -9 4 6 10 25
14 25 6z m-43 -22 c-3 -3 -12 -4 -19 -1 -8 3 -5 6 6 6 11 1 17 -2 13 -5z
m-1590 -186 c-3 -8 -6 -5 -6 6 -1 11 2 17 5 13 3 -3 4 -12 1 -19z m1850 -10
c-3 -8 -6 -5 -6 6 -1 11 2 17 5 13 3 -3 4 -12 1 -19z m-787 -42 c0 -2 -8 -10
-17 -17 -16 -13 -17 -12 -4 4 13 16 21 21 21 13z m-1306 -62 c3 -8 2 -12 -4
-9 -6 3 -10 10 -10 16 0 14 7 11 14 -7z"/>
<path d="M4041 2454 c0 -11 3 -14 6 -6 3 7 2 16 -1 19 -3 4 -6 -2 -5 -13z"/>
</g>
</svg>
