<?xml version="1.0" encoding="utf-8"?>
<!-- Generator: Adobe Illustrator 24.2.3, SVG Export Plug-In . SVG Version: 6.00 Build 0)  -->
<svg version="1.1" id="katman_1" xmlns="http://www.w3.org/2000/svg" xmlns:xlink="http://www.w3.org/1999/xlink" x="0px" y="0px"
	 viewBox="0 0 2500 2500" style="enable-background:new 0 0 2500 2500;" xml:space="preserve">
<style type="text/css">
	.st0{fill:#D34A47;}
	.st1{fill:#FFFFFF;}
</style>
<path class="st0" d="M1533.8,2338.8l22.2-370.5l61.4-104.8c0,0-139.7,57.2-373.7,57.2c-234,0-371.6-56.1-371.6-56.1l68.8,114.3
	l24.3,359.9c0,38.6,127.3,69.9,284.2,69.9C1406.5,2408.7,1533.8,2377.4,1533.8,2338.8 M1463.6,608.6l46.7-184.5l258.5-272l-68.1-58
	L1427,383.8l-54.2,220.4c-40.8-1.4-81.6-2-122.4-2c-288.2,0-521.8,32.8-521.8,73.3c0,40.5,233.6,73.3,521.8,73.3
	c288.2,0,521.8-32.8,521.8-73.3C1772.2,645.7,1645.5,620.1,1463.6,608.6"/>
<path class="st1" d="M1436.5,711.9c0,0-10.1,2.3-39.8,2.4c-29.7,0.1-50.9-0.2-59.3-7.9c-2.3-2.1-3.5-6.1-3.5-8.9
	c0-5.3,3.8-8.4,8.5-10.3l4.5,7.1c-2,0.7-3.1,1.5-3.1,2.3c0,4,30.4,6.7,53.7,6.4c23.3-0.3,51.4-2.2,51.4-6.1c0-1.2-2.1-2.3-5.8-3.2
	l4.5-7c6,1.9,11.3,5.5,11.3,11.8C1458.8,709.1,1445.3,710.7,1436.5,711.9"/>
<path class="st0" d="M1768.2,152.7c6.5-7.5-3.4-26.7-22-42.9c-18.7-16.2-39.1-23.2-45.6-15.7c-6.5,7.5,3.4,26.7,22,42.9
	C1741.3,153.2,1761.7,160.2,1768.2,152.7 M1521.3,1433.8c-6.1-58.9,128.9-144.3,94.3-147c-74.6,4.3-111.7,87.4-149.3,174.5
	c-13.8,31.9-60.8,168-91.7,151.3c-30.9-16.7,40-128.7,59.9-195.2c-22.9,16.8-107,82.1-128.6,21c-34.8,29.6-109.2,45.6-100.8-32.1
	c-18.5,32.8-60.1,78.6-110,59.6c-65.5-25,38-233.8,63.7-223.3c25.7,10.5-5.2,58.1-13.3,76.6c-17.8,40.6-38.4,91.7-24.7,102.2
	c23.6,17.9,87.7-67.8,89.1-69.7c12-15.8,46.2-119.5,73.7-107.6s-68.7,148.8-32.7,175.9c7.3,5.5,36.9-3.4,55-22.9
	c11.7-12.6,7.7-40.6,46.6-133.5c39-92.9,73.7-208.6,100.4-199.8c26.7,8.8,4.7,68.2-4.9,90.3c-45,103.9-122.7,275.5-86.1,262.5
	c36.7-13,55.8-13.8,91.7-55.8c35.9-42,34.3-111.2,58.2-109.8c23.9,1.5,19.9,23.7,14.1,40.6c23.6-27,111.7-83.7,132.9-27.5
	c25.2,66.6-126.1,162.7-88.4,157.8c36.8-4.8,96.3-42.5,121.8-76.8l70-629.4c0,0-70.5,58.3-518.7,58.3
	c-448.2,0-511.4-57.1-511.4-57.1l59.6,574.5c31.6-89.9,106.8-271.8,225.2-265.7c53.9,2.8,125.8,106.5,64.2,110
	c-26.1,1.5-28.7-51.8-59.6-59.6c-22.3-5.6-53.3,12.5-73.3,32.1c-40,39.1-126,193.5-114.6,270.5c14.5,98.1,135.4-34.1,155.9-73.4
	c14.4-27.7,24.1-109.6,55.7-101c31.5,8.6-2.7,93.1-25.6,167.9c-25.7,83.9-39.2,172.5-71.3,162.3c-32.2-10.2,20.2-118.5,18.3-137.5
	c-30.2,27.9-85.9,98.5-157.2,63.6l37,356.8c0,0,98.4,77.7,394.8,77.7s398.4-76.5,398.4-76.5l46-413.2
	C1648,1442.1,1529,1507.1,1521.3,1433.8"/>
</svg>
