<?xml version="1.0" encoding="utf-8"?>
<!-- Generator: Adobe Illustrator 24.2.3, SVG Export Plug-In . SVG Version: 6.00 Build 0)  -->
<svg version="1.1" id="Layer_1" xmlns="http://www.w3.org/2000/svg" xmlns:xlink="http://www.w3.org/1999/xlink" x="0px" y="0px"
	 viewBox="0 0 337.3 337.3" style="enable-background:new 0 0 337.3 337.3;" xml:space="preserve">
<style type="text/css">
	.st0{fill:#E44F26;}
	.st1{fill:#F1662A;}
	.st2{fill:#EBEBEB;}
	.st3{fill:#FFFFFF;}
</style>
<g>
	<polygon class="st0" points="47,303.6 19.9,0 317.4,0 290.3,303.6 168.5,337.3 	"/>
	<polygon class="st1" points="168.7,311.5 267.1,284.2 290.3,24.8 168.7,24.8 	"/>
	<polygon class="st2" points="168.7,137.4 119.4,137.4 116,99.3 168.7,99.3 168.7,62.1 168.5,62.1 75.3,62.1 76.2,72.1 85.3,174.7 
		168.7,174.7 	"/>
	<polygon class="st2" points="168.7,234.1 168.5,234.2 127,223 124.4,193.3 104.2,193.3 87,193.3 92.2,251.8 168.5,272.9 
		168.7,272.9 	"/>
	<polygon class="st3" points="168.5,137.4 168.5,174.7 214.4,174.7 210.1,223 168.5,234.2 168.5,272.9 244.9,251.8 245.4,245.5 
		254.2,147.4 255.1,137.4 245.1,137.4 	"/>
	<polygon class="st3" points="168.5,62.1 168.5,85.2 168.5,99.2 168.5,99.3 258.4,99.3 258.4,99.3 258.5,99.3 259.2,90.9 
		260.9,72.1 261.8,62.1 	"/>
</g>
</svg>
