<?xml version="1.0" encoding="utf-8"?>
<!-- Svg Vector Icons : http://www.onlinewebfonts.com/icon -->
<!DOCTYPE svg PUBLIC "-//W3C//DTD SVG 1.1//EN" "http://www.w3.org/Graphics/SVG/1.1/DTD/svg11.dtd">
<svg version="1.1" xmlns="http://www.w3.org/2000/svg" xmlns:xlink="http://www.w3.org/1999/xlink" x="0px" y="0px" viewBox="0 0 1000 1000" enable-background="new 0 0 1000 1000" xml:space="preserve">
<metadata> Svg Vector Icons : http://www.onlinewebfonts.com/icon </metadata>
<g><path d="M132.5,500c0,141.7,84.5,264.1,207.1,322.1L164.3,354.3C143.9,398.8,132.5,448.1,132.5,500z M748.1,481.9c0-44.3-16.3-74.9-30.3-98.7c-18.6-29.5-36.1-54.5-36.1-83.9c0-32.9,25.6-63.5,61.7-63.5c1.6,0,3.2,0.2,4.7,0.3c-65.4-58.3-152.5-94-248.2-94c-128.4,0-241.4,64.2-307,161.3c8.6,0.3,16.8,0.4,23.6,0.4c38.4,0,97.9-4.6,97.9-4.6c19.8-1.1,22.1,27.2,2.4,29.5c0,0-19.9,2.3-42,3.4l133.8,387.7l80.4-234.9l-57.2-152.8c-19.8-1.1-38.6-3.4-38.6-3.4c-19.8-1.1-17.5-30.6,2.3-29.5c0,0,60.7,4.6,96.8,4.6c38.4,0,97.9-4.6,97.9-4.6c19.8-1.1,22.1,27.2,2.3,29.5c0,0-19.9,2.3-42,3.4l132.8,384.7l36.7-119.3C736,548.1,748.1,512.5,748.1,481.9L748.1,481.9z M506.5,531.3l-110.3,312c32.9,9.4,67.7,14.6,103.8,14.6c42.8,0,83.9-7.2,122-20.3c-1-1.5-1.9-3.2-2.6-4.9L506.5,531.3L506.5,531.3z M822.5,328.3c1.6,11.4,2.5,23.6,2.5,36.8c0,36.3-7,77.1-28,128.2L684.8,809.4C794,747.3,867.5,632.1,867.5,500C867.5,437.8,851.2,379.2,822.5,328.3z M500,10C229.4,10,10,229.4,10,500c0,270.6,219.4,490,490,490c270.6,0,490-219.4,490-490C990,229.4,770.6,10,500,10z M500,928.8c-236.8,0-428.8-192-428.8-428.8c0-236.8,192-428.8,428.8-428.8c236.8,0,428.8,192,428.8,428.8C928.8,736.8,736.8,928.8,500,928.8z"/></g>
</svg>